<svg width="20" height="20" viewBox="0 0 20 20" fill="none" xmlns="http://www.w3.org/2000/svg">
<path d="M15.2819 6.35705L9.57777 14.0979C9.44174 14.2784 9.23888 14.3966 9.01479 14.4261C8.7907 14.4556 8.56418 14.3938 8.38611 14.2546L4.31277 10.9979C3.95333 10.7102 3.89513 10.1857 4.18277 9.82622C4.47042 9.46678 4.995 9.40857 5.35444 9.69622L8.75111 12.4137L13.9403 5.37122C14.1104 5.11588 14.4072 4.97471 14.7126 5.00375C15.0181 5.0328 15.2829 5.22736 15.4019 5.5102C15.5208 5.79303 15.4748 6.11838 15.2819 6.35705Z" fill="#7B72C1"/>
<path d="M10 0C4.47715 0 0 4.47715 0 10C0 15.5228 4.47715 20 10 20C15.5228 20 20 15.5228 20 10C19.9936 4.47982 15.5202 0.00642897 10 0Z" fill="#5243C2" fill-opacity="0.15"/>
</svg>
